<svg id="Layer_1" data-name="Layer 1" xmlns="http://www.w3.org/2000/svg" viewBox="0 0 301.84 238.51"><defs><style>.cls-1,.cls-2{fill:#fff;stroke:#000;stroke-miterlimit:10;}.cls-1{stroke-width:0.5px;}</style></defs><title>IndyTennisSmall-BLK</title><line class="cls-1" x1="4.77" y1="47.33" x2="89.89" y2="132.46"/><line class="cls-1" x1="102.66" y1="128.2" x2="9.38" y2="34.91"/><line class="cls-1" x1="15.76" y1="24.27" x2="112.59" y2="121.1"/><line class="cls-1" x1="122.17" y1="113.66" x2="24.27" y2="15.76"/><line class="cls-1" x1="35.26" y1="9.73" x2="128.19" y2="102.66"/><line class="cls-1" x1="132.45" y1="89.89" x2="48.74" y2="6.18"/><line class="cls-1" x1="67.19" y1="7.6" x2="132.45" y2="72.87"/><line class="cls-1" x1="8.67" y1="68.25" x2="72.86" y2="132.46"/><line class="cls-1" x1="6.54" y1="45.55" x2="44.84" y2="7.25"/><line class="cls-1" x1="7.6" y1="61.51" x2="61.16" y2="7.95"/><line class="cls-1" x1="10.08" y1="76.06" x2="75.23" y2="10.91"/><line class="cls-1" x1="16.82" y1="86.34" x2="87.76" y2="15.4"/><line class="cls-1" x1="21.79" y1="98.4" x2="98.4" y2="21.79"/><line class="cls-1" x1="30.3" y1="106.92" x2="108.34" y2="28.88"/><line class="cls-1" x1="115.43" y1="38.81" x2="38.81" y2="115.43"/><line class="cls-1" x1="49.45" y1="121.81" x2="121.81" y2="49.46"/><line class="cls-1" x1="61.16" y1="127.13" x2="128.9" y2="59.39"/><line class="cls-1" x1="75.7" y1="129.62" x2="132.45" y2="72.87"/><line class="cls-1" x1="92.01" y1="130.32" x2="131.04" y2="91.31"/><path class="cls-2" d="M18.57,18.9C-4.9,42.37-.12,85.34,29.21,114.67c17.48,17.48,39.8,26.24,60,25.5h0c2-.08,4-.25,6-.52,17.26-.74,35.29,5.44,50.7,17.25L160,171l5.33-16-8.8-8.8c-11.8-15.41-18-33.45-17.25-50.71,3-21.63-5.73-46.75-25-66C85,.21,42-4.57,18.57,18.9ZM144.11,144.44a92.08,92.08,0,0,0-28.27-12,48.42,48.42,0,0,0,9.14-7.15,49,49,0,0,0,7.17-9.16A91.76,91.76,0,0,0,144.11,144.44Zm-13.38-56h0c-.3,2.19-.46,4.41-.55,6.62a41,41,0,0,1-35.4,35.41,68.18,68.18,0,0,0-6.87.58v0c-17.4.35-36.81-7.54-52.17-22.91C10,82.42,5.19,45.29,25.07,25.4s57-15.1,82.77,10.65C123.27,51.48,131.16,71,130.73,88.45Z" transform="translate(-3.17 -3.5)"/><polygon class="cls-2" points="203.36 214 208.68 198.04 199.7 189.06 194.38 205.03 203.36 214"/><polygon class="cls-2" points="214.97 225.62 220.31 209.66 211.32 200.69 206 216.65 214.97 225.62"/><polygon class="cls-2" points="191.74 202.38 197.06 186.42 188.08 177.44 182.76 193.41 191.74 202.38"/><polygon class="cls-2" points="227.16 237.8 237.8 227.16 222.94 212.31 217.63 228.27 227.16 237.8"/><polygon class="cls-2" points="180.12 190.76 185.43 174.8 176.46 165.82 171.14 181.79 180.12 190.76"/><polygon class="cls-2" points="168.49 179.14 173.82 163.18 164.84 154.2 159.53 170.17 168.49 179.14"/><line class="cls-1" x1="297.08" y1="47.33" x2="211.95" y2="132.46"/><line class="cls-1" x1="199.18" y1="128.2" x2="292.46" y2="34.91"/><line class="cls-1" x1="286.09" y1="24.27" x2="189.25" y2="121.1"/><line class="cls-1" x1="179.67" y1="113.66" x2="277.57" y2="15.76"/><line class="cls-1" x1="266.57" y1="9.73" x2="173.64" y2="102.66"/><line class="cls-1" x1="169.38" y1="89.89" x2="253.09" y2="6.18"/><line class="cls-1" x1="234.64" y1="7.6" x2="169.38" y2="72.87"/><line class="cls-1" x1="293.18" y1="68.25" x2="228.97" y2="132.46"/><line class="cls-1" x1="295.31" y1="45.55" x2="256.99" y2="7.25"/><line class="cls-1" x1="294.24" y1="61.51" x2="240.68" y2="7.95"/><line class="cls-1" x1="291.76" y1="76.06" x2="226.61" y2="10.91"/><line class="cls-1" x1="285.01" y1="86.34" x2="214.08" y2="15.4"/><line class="cls-1" x1="280.05" y1="98.4" x2="203.44" y2="21.79"/><line class="cls-1" x1="271.54" y1="106.92" x2="193.51" y2="28.88"/><line class="cls-1" x1="186.42" y1="38.81" x2="263.03" y2="115.43"/><line class="cls-1" x1="252.38" y1="121.81" x2="180.02" y2="49.46"/><line class="cls-1" x1="240.68" y1="127.13" x2="172.93" y2="59.39"/><line class="cls-1" x1="226.13" y1="129.62" x2="169.38" y2="72.87"/><line class="cls-1" x1="209.82" y1="130.32" x2="170.8" y2="91.31"/><path class="cls-2" d="M193.84,29.54c-19.26,19.26-27.93,44.38-25,66,.74,17.26-5.44,35.3-17.24,50.71l-8.8,8.8,5.32,16,14.12-14.12c15.42-11.81,33.46-18,50.71-17.25,2,.27,4,.44,6,.52h0c20.15.74,42.47-8,59.94-25.5,29.34-29.33,34.12-72.3,10.64-95.77S223.18.21,193.84,29.54ZM176,116.16a47.73,47.73,0,0,0,16.31,16.31,92.24,92.24,0,0,0-28.28,12A91.79,91.79,0,0,0,176,116.16Zm24.31-80.11C226.09,10.3,263.21,5.52,283.1,25.4s15.11,57-10.64,82.77c-15.37,15.37-34.78,23.26-52.17,22.91v0a68,68,0,0,0-6.85-.58A41,41,0,0,1,178,95.07c-.09-2.21-.25-4.43-.56-6.62h0C177,71,184.9,51.48,200.34,36.05Z" transform="translate(-3.17 -3.5)"/><polygon class="cls-2" points="98.48 214 93.16 198.04 102.14 189.06 107.46 205.03 98.48 214"/><polygon class="cls-2" points="86.86 225.62 81.54 209.66 90.52 200.69 95.84 216.65 86.86 225.62"/><polygon class="cls-2" points="110.1 202.38 104.78 186.42 113.75 177.44 119.07 193.41 110.1 202.38"/><polygon class="cls-2" points="74.68 237.8 64.04 227.16 78.89 212.31 84.21 228.27 74.68 237.8"/><polygon class="cls-2" points="121.72 190.76 116.4 174.8 125.38 165.82 130.7 181.79 121.72 190.76"/><polygon class="cls-2" points="133.34 179.14 128.03 163.18 137 154.2 142.32 170.17 133.34 179.14"/></svg>