<svg xmlns="http://www.w3.org/2000/svg" viewBox="0 0 493.2 166.49"><defs><style>.cls-1,.cls-2,.cls-3{fill:#fff;}.cls-2,.cls-3{stroke:#fff;stroke-miterlimit:10;}.cls-2{stroke-width:0.5px;}</style></defs><title>IndyTennis_WH</title><g id="Layer_4" data-name="Layer 4"><rect class="cls-1" y="86.72" width="493.2" height="2.97"/><rect class="cls-1" y="158" width="181.42" height="2.97"/><rect class="cls-1" x="309.34" y="158" width="183.86" height="2.97"/><polygon class="cls-1" points="25.3 110.48 11.93 110.48 11.93 113.45 25.3 113.45 25.3 137.21 11.93 137.21 11.93 140.18 25.3 140.18 28.27 140.18 41.63 140.18 41.63 137.21 28.27 137.21 28.27 113.45 41.63 113.45 41.63 110.48 28.27 110.48 25.3 110.48"/><polygon class="cls-1" points="86.18 110.48 80.24 110.48 80.24 113.45 86.18 113.45 86.18 135.84 62.42 110.48 59.45 110.48 53.51 110.48 53.51 113.45 59.45 113.45 59.45 137.21 53.51 137.21 53.51 140.18 59.45 140.18 62.42 140.18 68.36 140.18 68.36 137.21 62.42 137.21 62.42 114.82 86.18 140.18 86.18 140.18 86.18 140.18 89.15 140.18 95.09 140.18 95.09 137.21 89.15 137.21 89.15 113.45 95.09 113.45 95.09 110.48 89.15 110.48 86.18 110.48"/><polygon class="cls-1" points="335.67 110.48 329.72 110.48 329.72 113.45 335.67 113.45 335.67 135.84 311.9 110.48 308.94 110.48 302.99 110.48 302.99 113.45 308.94 113.45 308.94 137.21 302.99 137.21 302.99 140.18 308.94 140.18 311.9 140.18 317.84 140.18 317.84 137.21 311.9 137.21 311.9 114.82 335.66 140.18 335.66 140.18 335.67 140.18 338.63 140.18 344.57 140.18 344.57 137.21 338.63 137.21 338.63 113.45 344.57 113.45 344.57 110.48 338.63 110.48 335.67 110.48"/><polygon class="cls-1" points="389.13 110.48 383.19 110.48 383.19 113.45 389.13 113.45 389.13 135.84 365.36 110.48 362.39 110.48 356.45 110.48 356.45 113.45 362.39 113.45 362.39 137.21 356.45 137.21 356.45 140.18 362.39 140.18 365.36 140.18 371.3 140.18 371.3 137.21 365.36 137.21 365.36 114.82 389.12 140.18 389.12 140.18 389.13 140.18 392.09 140.18 398.03 140.18 398.03 137.21 392.09 137.21 392.09 113.45 398.03 113.45 398.03 110.48 392.09 110.48 389.13 110.48"/><path class="cls-1" d="M135.38,112.77H108.65v3h5.94V139.5h-5.94v3h26.73a14.85,14.85,0,0,0,0-29.7Zm0,26.73H117.56V115.74h17.82a11.88,11.88,0,0,1,0,23.76Z" transform="translate(-1.68 -2.29)"/><polygon class="cls-1" points="178.25 113.45 185.23 113.45 175.41 123.36 165.5 113.45 172.31 113.45 172.31 110.48 154.49 110.48 154.49 113.45 161.3 113.45 173.8 125.94 173.8 137.21 167.86 137.21 167.86 140.18 173.8 140.18 176.77 140.18 182.71 140.18 182.71 137.21 176.77 137.21 176.77 126.21 189.42 113.45 196.07 113.45 196.07 110.48 178.25 110.48 178.25 113.45"/><polygon class="cls-1" points="210.92 110.38 207.95 110.38 207.95 119.39 210.92 119.39 210.92 113.45 224.29 113.45 224.29 137.21 218.35 137.21 218.35 140.18 224.29 140.18 227.26 140.18 233.2 140.18 233.2 137.21 227.26 137.21 227.26 113.45 240.62 113.45 240.62 119.39 243.59 119.39 243.59 110.38 240.62 110.38 210.92 110.38"/><polygon class="cls-1" points="288.14 110.48 264.38 110.48 261.41 110.48 255.47 110.48 255.47 113.45 261.41 113.45 261.41 123.84 261.41 126.81 261.41 137.21 255.47 137.21 255.47 140.18 261.41 140.18 264.38 140.18 288.14 140.18 288.14 140.27 291.11 140.27 291.11 140.18 291.11 137.21 291.11 131.27 288.14 131.27 288.14 137.21 264.38 137.21 264.38 126.81 277.7 126.81 277.7 129.83 280.67 129.83 280.67 120.82 277.7 120.82 277.7 123.84 264.38 123.84 264.38 113.45 288.14 113.45 288.14 119.39 291.11 119.39 291.11 110.38 288.14 110.38 288.14 110.48"/><polygon class="cls-1" points="423.28 110.48 409.92 110.48 409.92 113.45 423.28 113.45 423.28 137.21 409.92 137.21 409.92 140.18 423.28 140.18 426.25 140.18 439.61 140.18 439.61 137.21 426.25 137.21 426.25 113.45 439.61 113.45 439.61 110.48 426.25 110.48 423.28 110.48"/><path class="cls-1" d="M480,112.77v3c-3-1.85-7.59-3-12.76-3-9,0-16.33,3.61-16.33,8.06a5,5,0,0,0,.31,1.31,5.27,5.27,0,0,0,.56,1.26,7.3,7.3,0,0,0,2.37,2.22,17.71,17.71,0,0,0,3.72,1.73,23.75,23.75,0,0,0,4.63,1.07c1.81.25,3.64.34,5.47.41a23.53,23.53,0,0,1,6.82,1.18A8.67,8.67,0,0,1,479,132.6a3.55,3.55,0,0,1,.7,1.82c0,3.11-5.85,5.63-13.07,5.63-5.44,0-9.5-.83-13.36-4.33v-2.16h-3v8.85h3V139c2.95,2.08,7.83,3.44,13.36,3.44,9,0,16.33-3.61,16.33-8.05a4.91,4.91,0,0,0-.3-1.3,5.17,5.17,0,0,0-.55-1.25,7.28,7.28,0,0,0-2.32-2.2,17.1,17.1,0,0,0-3.64-1.73,23.47,23.47,0,0,0-4.54-1.09,50.49,50.49,0,0,0-5.36-.42l-.89,0c-6.32-.4-11.18-2.74-11.18-5.57,0-3.12,5.84-5.64,13.06-5.64,5.45,0,10,1.06,12.76,4.12v2.37h3v-8.91Z" transform="translate(-1.68 -2.29)"/><path class="cls-1" d="M196.79,165.52a8.94,8.94,0,0,1-2.78-.44l.23-2.53h.84l.41,2a3.56,3.56,0,0,0,1.48.29c1,0,1.51-.53,1.52-1.28s-.75-1.23-1.68-1.74c-1.29-.7-2.07-1.23-2.07-2.56s1.37-2.35,3-2.35a7.8,7.8,0,0,1,2.09.3l.72-.22-.36,2.71-.83,0-.27-1.77a4.06,4.06,0,0,0-1.51-.29,1.2,1.2,0,0,0-1.32,1c0,.87.74,1.29,1.76,1.84s2,1.2,2,2.45C200.05,164.53,198.63,165.52,196.79,165.52Z" transform="translate(-1.68 -2.29)"/><path class="cls-1" d="M202.89,163.25a1.19,1.19,0,0,0,1.16,1.29,4.47,4.47,0,0,0,1.68-.87l.21.28a3.24,3.24,0,0,1-2.48,1.57,2,2,0,0,1-2.06-2.22c0-2,1.58-4.17,3.49-4.17,1.05,0,1.62.58,1.62,1.32,0,.91-1.11,1.32-3.62,2.63Zm0-.64c1.65-.91,2.29-1.37,2.29-2.09,0-.36-.68-.62-1-.62a.51.51,0,0,0-.41.14,5.44,5.44,0,0,0-1,2.57Z" transform="translate(-1.68 -2.29)"/><path class="cls-1" d="M211.58,160.12a30,30,0,0,0-2,3.51l-.31,1.72h-1.6l.49-2,.65-3.18-.39-.08-.84.95-.28-.29c.35-.73,1-1.65,1.73-1.65.33,0,1.28.23,1.28.48a22.25,22.25,0,0,1-.86,3.24h.19a13.65,13.65,0,0,1,1.38-2.76c.4-.71.66-1,1.31-1a1,1,0,0,1,1,1.09.93.93,0,0,1-.85,1,.73.73,0,0,1-.72-1S211.61,160.09,211.58,160.12Z" transform="translate(-1.68 -2.29)"/><path class="cls-1" d="M217.2,165.27l-1.65.25-.12-5.32-.38-.08-.85.95-.26-.29c.33-.73,1-1.65,1.71-1.65.33,0,1.28.3,1.28.54v4.91h.15l1.46-2.47a2.39,2.39,0,0,0,.45-1.2c0-.38-.41-.75-1-.86a1.19,1.19,0,0,1,1.15-.93,1.07,1.07,0,0,1,1.11,1.09c0,.78-.52,1.53-1.39,2.7Z" transform="translate(-1.68 -2.29)"/><path class="cls-1" d="M222.47,165.53c-.33,0-1.23-.37-1.18-.55l1.27-4.78-.4-.08-.85.95-.27-.29c.33-.73,1-1.65,1.72-1.65.33,0,1.37.34,1.3.56l-1.32,4.8.36.12,1-.67.22.27A2.53,2.53,0,0,1,222.47,165.53Zm1.44-7.27a.84.84,0,0,1-.88-.88,1.09,1.09,0,0,1,.9-1.17.85.85,0,0,1,.87.9A1.06,1.06,0,0,1,223.91,158.26Z" transform="translate(-1.68 -2.29)"/><path class="cls-1" d="M230,165.53c-.33,0-1.17-.3-1.17-.55a16.21,16.21,0,0,1,.74-2.5,9,9,0,0,0,.43-1.66c0-.26-.3-.46-.61-.46s-1,.95-2,3l-.44,2h-1.59l.48-2,.65-3.14-.37-.09-.87.92-.26-.29c.34-.73,1-1.65,1.71-1.65.33,0,1.29.23,1.29.48a26.19,26.19,0,0,1-.72,3h.14a12,12,0,0,1,1.6-2.88,1.82,1.82,0,0,1,1.27-.58,1.08,1.08,0,0,1,1.16,1.06,10.05,10.05,0,0,1-.61,2.49c-.12.38-.53,1.6-.59,1.81l.35.12,1-.67.23.27A2.55,2.55,0,0,1,230,165.53Z" transform="translate(-1.68 -2.29)"/><path class="cls-1" d="M237.27,160.17l0,.14a1.59,1.59,0,0,1,.68,1.3,2.31,2.31,0,0,1-2.5,2.09,3.65,3.65,0,0,1-.92-.13.61.61,0,0,0-.46.54c0,.33.44.49,1.08.7l.61.17c1.22.37,2,.82,2,1.81s-1.23,2-3.55,2c-1.56,0-2.63-.57-2.63-1.56,0-.8.94-1.32,1.83-1.56v-.1a1,1,0,0,1-.57-.87c0-.6.47-1,1.2-1.26v-.1a2,2,0,0,1-.94-1.65,2.65,2.65,0,0,1,2.8-2.55,6.21,6.21,0,0,1,1.57.26l1.66,0-.33,1.19Zm-2.12,6.1a13,13,0,0,1-1.33-.47,1.4,1.4,0,0,0-1,1.17c0,.66.8,1.16,2.06,1.16,1,0,1.67-.37,1.67-.84S236.14,166.6,235.15,166.27Zm.51-6.41a.58.58,0,0,0-.43.14,3.57,3.57,0,0,0-.71,2.17,1.38,1.38,0,0,0,.29.84.62.62,0,0,0,.41.17,1,1,0,0,0,.73-.34,3.5,3.5,0,0,0,.68-2.22C236.63,160.24,236.1,159.86,235.66,159.86Z" transform="translate(-1.68 -2.29)"/><path class="cls-1" d="M244.75,165.52a8.93,8.93,0,0,1-2.77-.44l.22-2.53h.85l.41,2a3.5,3.5,0,0,0,1.48.29c1,0,1.5-.53,1.51-1.28s-.75-1.23-1.67-1.74c-1.3-.7-2.07-1.23-2.07-2.56s1.37-2.35,3-2.35a7.68,7.68,0,0,1,2.09.3l.73-.22-.36,2.71-.83,0-.28-1.77a4,4,0,0,0-1.5-.29,1.19,1.19,0,0,0-1.32,1c0,.87.73,1.29,1.75,1.84s2,1.2,2,2.45C248,164.53,246.6,165.52,244.75,165.52Z" transform="translate(-1.68 -2.29)"/><path class="cls-1" d="M250.7,165.53c-.33,0-1.23-.37-1.18-.55l1.27-4.78-.4-.08-.85.95-.27-.29c.33-.73,1-1.65,1.72-1.65.33,0,1.37.34,1.3.56l-1.31,4.8.35.12,1-.67.22.27A2.53,2.53,0,0,1,250.7,165.53Zm1.44-7.27a.84.84,0,0,1-.87-.88,1.08,1.08,0,0,1,.89-1.17.85.85,0,0,1,.87.9A1.06,1.06,0,0,1,252.14,158.26Z" transform="translate(-1.68 -2.29)"/><path class="cls-1" d="M258.24,165.53c-.33,0-1.17-.3-1.17-.55a17.51,17.51,0,0,1,.74-2.5,8.28,8.28,0,0,0,.43-1.66c0-.26-.3-.46-.6-.46s-1,.95-2,3l-.44,2h-1.59l.49-2,.64-3.14-.37-.09-.87.92-.26-.29c.34-.73,1-1.65,1.71-1.65.33,0,1.3.23,1.3.48a24.33,24.33,0,0,1-.73,3h.15a11.74,11.74,0,0,1,1.59-2.88,1.82,1.82,0,0,1,1.27-.58,1.08,1.08,0,0,1,1.16,1.06,10.43,10.43,0,0,1-.6,2.49c-.12.38-.53,1.6-.6,1.81l.36.12,1-.67.23.27A2.55,2.55,0,0,1,258.24,165.53Z" transform="translate(-1.68 -2.29)"/><path class="cls-1" d="M263.86,159.88a.52.52,0,0,0-.25.16,5.43,5.43,0,0,0-1,3.09c0,.86.49,1.41,1.16,1.41a4.55,4.55,0,0,0,1.68-.87l.21.28a3.26,3.26,0,0,1-2.48,1.57,2,2,0,0,1-2.06-2.22c0-1.94,1.58-4.17,3.57-4.17a1.48,1.48,0,0,1,1.65,1.32.9.9,0,0,1-.83,1,.67.67,0,0,1-.72-.72,1.22,1.22,0,0,1,.15-.53A2.29,2.29,0,0,0,263.86,159.88Z" transform="translate(-1.68 -2.29)"/><path class="cls-1" d="M268.45,163.25a1.19,1.19,0,0,0,1.16,1.29,4.47,4.47,0,0,0,1.68-.87l.21.28a3.24,3.24,0,0,1-2.48,1.57A2,2,0,0,1,267,163.3c0-2,1.58-4.17,3.49-4.17,1.05,0,1.62.58,1.62,1.32,0,.91-1.11,1.32-3.62,2.63Zm0-.64c1.65-.91,2.29-1.37,2.29-2.09,0-.36-.68-.62-1-.62a.51.51,0,0,0-.41.14,5.44,5.44,0,0,0-.95,2.57Z" transform="translate(-1.68 -2.29)"/><path class="cls-1" d="M280.21,165.32h-5.29v-.8c2.33-2,4.46-3.36,4.46-5.06a1.38,1.38,0,0,0-1.45-1.44,3.5,3.5,0,0,0-2.12.93l-.12-.35a4.35,4.35,0,0,1,3.06-1.7A2.12,2.12,0,0,1,281,159c0,1.87-2.52,3.46-4.8,5.11v.08h.88c2.23,0,2.63-.06,2.95-.54l.35-.56h.57Z" transform="translate(-1.68 -2.29)"/><path class="cls-1" d="M284.85,165.52c-1.88,0-2.59-1.62-2.59-3.29,0-2,.94-5.33,3.45-5.33,1.87,0,2.57,1.69,2.57,3.34C288.28,162.22,287.3,165.52,284.85,165.52Zm.82-8.11c-1.39,0-1.86,4.18-1.86,5.65,0,.72.09,1.94,1.05,1.94,1.39,0,1.88-4.11,1.88-5.61C286.74,158.67,286.64,157.41,285.67,157.41Z" transform="translate(-1.68 -2.29)"/><path class="cls-1" d="M292.06,165.52c-1.87,0-2.58-1.62-2.58-3.29,0-2,.93-5.33,3.44-5.33,1.88,0,2.58,1.69,2.58,3.34C295.5,162.22,294.52,165.52,292.06,165.52Zm.82-8.11c-1.38,0-1.86,4.18-1.86,5.65,0,.72.09,1.94,1.06,1.94,1.38,0,1.87-4.11,1.87-5.61C294,158.67,293.86,157.41,292.88,157.41Z" transform="translate(-1.68 -2.29)"/><path class="cls-1" d="M301.14,163l-.34,2.36h-1.4l.33-2.36h-3.38l0-.6,4.7-5.47.89.16-.69,5.18h1.37l-.17.73Zm-.82-4.33h-.12l-3.08,3.6h2.69Z" transform="translate(-1.68 -2.29)"/><line class="cls-2" x1="200.71" y1="15.2" x2="227.44" y2="41.93"/><line class="cls-2" x1="231.45" y1="40.59" x2="202.16" y2="11.3"/><line class="cls-2" x1="204.16" y1="7.96" x2="234.57" y2="38.37"/><line class="cls-2" x1="237.57" y1="36.03" x2="206.83" y2="5.29"/><line class="cls-2" x1="210.29" y1="3.4" x2="239.46" y2="32.58"/><line class="cls-2" x1="240.8" y1="28.57" x2="214.52" y2="2.28"/><line class="cls-2" x1="220.31" y1="2.73" x2="240.8" y2="23.22"/><line class="cls-2" x1="201.93" y1="21.77" x2="222.09" y2="41.93"/><line class="cls-2" x1="201.27" y1="14.65" x2="213.29" y2="2.62"/><line class="cls-2" x1="201.6" y1="19.66" x2="218.42" y2="2.84"/><line class="cls-2" x1="202.38" y1="24.22" x2="222.83" y2="3.77"/><line class="cls-2" x1="204.5" y1="27.45" x2="226.77" y2="5.18"/><line class="cls-2" x1="206.05" y1="31.24" x2="230.11" y2="7.18"/><line class="cls-2" x1="208.73" y1="33.91" x2="233.23" y2="9.41"/><line class="cls-2" x1="235.46" y1="12.53" x2="211.4" y2="36.58"/><line class="cls-2" x1="214.74" y1="38.59" x2="237.46" y2="15.87"/><line class="cls-2" x1="218.42" y1="40.26" x2="239.69" y2="18.99"/><line class="cls-2" x1="222.98" y1="41.04" x2="240.8" y2="23.22"/><line class="cls-2" x1="228.1" y1="41.26" x2="240.36" y2="29.01"/><path class="cls-3" d="M205.73,7.47c-7.37,7.37-5.87,20.86,3.34,30.07,5.49,5.49,12.5,8.24,18.82,8h0c.64,0,1.27-.08,1.89-.16a24.71,24.71,0,0,1,15.92,5.41l4.44,4.44,1.67-5-2.76-2.76a24.78,24.78,0,0,1-5.42-15.92c.93-6.79-1.8-14.68-7.84-20.73C226.59,1.6,213.1.1,205.73,7.47Zm39.42,39.42a28.93,28.93,0,0,0-8.88-3.76,15,15,0,0,0,2.87-2.25A15.47,15.47,0,0,0,241.39,38,28.82,28.82,0,0,0,245.15,46.89Zm-4.21-17.58h0c-.09.69-.14,1.38-.17,2.08a12.88,12.88,0,0,1-11.11,11.12c-.73,0-1.45.08-2.16.18h0c-5.46.11-11.55-2.36-16.38-7.19-8.08-8.08-9.58-19.74-3.34-26s17.9-4.74,26,3.35C238.6,17.7,241.08,23.83,240.94,29.31Z" transform="translate(-1.68 -2.29)"/><polygon class="cls-3" points="263.06 67.54 264.74 62.52 261.92 59.71 260.25 64.72 263.06 67.54"/><polygon class="cls-3" points="266.71 71.18 268.39 66.17 265.56 63.35 263.89 68.37 266.71 71.18"/><polygon class="cls-3" points="259.42 63.89 261.09 58.88 258.27 56.06 256.6 61.07 259.42 63.89"/><polygon class="cls-3" points="270.54 75.01 273.88 71.67 269.21 67 267.54 72.02 270.54 75.01"/><polygon class="cls-3" points="255.77 60.24 257.44 55.23 254.62 52.41 252.95 57.42 255.77 60.24"/><polygon class="cls-3" points="252.12 56.59 253.79 51.58 250.97 48.76 249.3 53.77 252.12 56.59"/><line class="cls-2" x1="292.49" y1="15.2" x2="265.76" y2="41.93"/><line class="cls-2" x1="261.75" y1="40.59" x2="291.04" y2="11.3"/><line class="cls-2" x1="289.04" y1="7.96" x2="258.64" y2="38.37"/><line class="cls-2" x1="255.63" y1="36.03" x2="286.36" y2="5.29"/><line class="cls-2" x1="282.91" y1="3.4" x2="253.73" y2="32.58"/><line class="cls-2" x1="252.4" y1="28.57" x2="278.68" y2="2.28"/><line class="cls-2" x1="272.89" y1="2.73" x2="252.4" y2="23.22"/><line class="cls-2" x1="291.27" y1="21.77" x2="271.11" y2="41.93"/><line class="cls-2" x1="291.93" y1="14.65" x2="279.91" y2="2.62"/><line class="cls-2" x1="291.6" y1="19.66" x2="274.78" y2="2.84"/><line class="cls-2" x1="290.82" y1="24.22" x2="270.37" y2="3.77"/><line class="cls-2" x1="288.7" y1="27.45" x2="266.43" y2="5.18"/><line class="cls-2" x1="287.14" y1="31.24" x2="263.09" y2="7.18"/><line class="cls-2" x1="284.47" y1="33.91" x2="259.97" y2="9.41"/><line class="cls-2" x1="257.75" y1="12.53" x2="281.8" y2="36.58"/><line class="cls-2" x1="278.46" y1="38.59" x2="255.74" y2="15.87"/><line class="cls-2" x1="274.78" y1="40.26" x2="253.51" y2="18.99"/><line class="cls-2" x1="270.22" y1="41.04" x2="252.4" y2="23.22"/><line class="cls-2" x1="265.09" y1="41.26" x2="252.84" y2="29.01"/><path class="cls-3" d="M260.76,10.81c-6,6-8.77,13.94-7.85,20.73a24.83,24.83,0,0,1-5.41,15.92l-2.76,2.76,1.67,5,4.43-4.44a24.71,24.71,0,0,1,15.92-5.41c.62.08,1.25.13,1.89.16h0c6.33.23,13.34-2.52,18.83-8,9.21-9.21,10.71-22.7,3.34-30.07S270,1.6,260.76,10.81ZM255.17,38a14.67,14.67,0,0,0,2.25,2.87,14.38,14.38,0,0,0,2.87,2.25,28.82,28.82,0,0,0-8.88,3.76A28.82,28.82,0,0,0,255.17,38Zm7.63-25.15c8.09-8.09,19.74-9.59,26-3.35s4.74,17.91-3.35,26c-4.82,4.83-10.92,7.3-16.38,7.19h0c-.71-.1-1.43-.15-2.15-.18A12.88,12.88,0,0,1,255.8,31.39a20.59,20.59,0,0,0-.18-2.08h0C255.48,23.83,258,17.7,262.8,12.86Z" transform="translate(-1.68 -2.29)"/><polygon class="cls-3" points="230.14 67.54 228.46 62.52 231.28 59.71 232.95 64.72 230.14 67.54"/><polygon class="cls-3" points="226.49 71.18 224.81 66.17 227.63 63.35 229.31 68.37 226.49 71.18"/><polygon class="cls-3" points="233.78 63.89 232.11 58.88 234.93 56.06 236.6 61.07 233.78 63.89"/><polygon class="cls-3" points="222.66 75.01 219.32 71.67 223.99 67 225.66 72.02 222.66 75.01"/><polygon class="cls-3" points="237.43 60.24 235.76 55.23 238.58 52.41 240.25 57.42 237.43 60.24"/><polygon class="cls-3" points="241.08 56.59 239.41 51.58 242.23 48.76 243.9 53.77 241.08 56.59"/></g></svg>